# xmcd CD database file generated by OrangeCD 5.2
#
# Track frame offsets:
#	150
#	14597
#	29825
#	47180
#	59032
#	75137
#	91742
#	108877
#	120765
#	136397
#
# Disc length: 1983 seconds
#
# Revision: 2
# Processed by: cddbd v1.5.1PL0 Copyright (c) Steve Scherf et al.
# Submitted via: OrangeCD 5.2
#
DISCID=7907bd0a
DTITLE=The Country Dance Kings - Country Dance Club U.S.A (Volume One)
DYEAR=1994
DGENRE=Country
TTITLE0=Chattahoochie
TTITLE1=Trashy Women
TTITLE2=Prop Me Up Beside The Jukebox (If I Die)
TTITLE3=Holdin' Heaven
TTITLE4=God Blessed Texas
TTITLE5=Beer And Bones
TTITLE6=Ain't Goin' Down (Til The Sun Comes Up)
TTITLE7=I'll Take Texas
TTITLE8=Blame It On Your Heart
TTITLE9=Cowboy Boogie
EXTD=
EXTT0=
EXTT1=
EXTT2=
EXTT3=
EXTT4=
EXTT5=
EXTT6=
EXTT7=
EXTT8=
EXTT9=
PLAYORDER=
